# xmcd CD database file
#
# Track frame offsets:
#	225
#	17846
#	33806
#	49747
#	64902
#	83404
#	103360
#	121552
#	140017
#	157665
#	181619
#	195513
#
# Disc length: 2816 seconds
#
# Revision: 4
# Processed by: cddbd v1.5.2PL0 Copyright (c) Steve Scherf et al.
# Submitted via: CDex 1.70beta2
#
DISCID=8c0afd0c
DTITLE=Various Artist - Body Lounge - Relax and Chillout [CD2] - Melodies To Relax Body And Mind (Romantic Guitar and Nature Sounds)
DYEAR=2013
DGENRE=Lounge
TTITLE0=Trad - Sono Visione
TTITLE1=Trad - Maria Elena
TTITLE2=Matthias Bergmann Manuskript - Venezia
TTITLE3=Matthias Bergmann Manuskript - Esotheric Song
TTITLE4=Matthias Bergmann Manuskript - Classico
TTITLE5=Joaquin Rodrigo - Aranjuez
TTITLE6=Hans Jochler Manuskript - Die letzten Paradiese
TTITLE7=Matthias Bergmann Manuskript - Skyline
TTITLE8=Matthias Bergmann Manuskript - Indian Pipe
TTITLE9=Trad - Inez
TTITLE10=Matthias Bergmann Manuskript - Meditation Of Guitar
TTITLE11=Matthias Bergmann Manuskript - Alvinjola
EXTD=YEAR: 2013
EXTT0=
EXTT1=
EXTT2=
EXTT3=
EXTT4=
EXTT5=
EXTT6=
EXTT7=
EXTT8=
EXTT9=
EXTT10=
EXTT11=
PLAYORDER=
